<?xml version="1.0" encoding="utf-8"?>
<!-- Generator: Adobe Illustrator 15.1.0, SVG Export Plug-In . SVG Version: 6.00 Build 0)  -->
<!DOCTYPE svg PUBLIC "-//W3C//DTD SVG 1.1//EN" "http://www.w3.org/Graphics/SVG/1.1/DTD/svg11.dtd">
<svg version="1.1"
	 id="svg5870" inkscape:version="0.91 r13725" sodipodi:docname="opraseno15x15.svg" xmlns:dc="http://purl.org/dc/elements/1.1/" xmlns:rdf="http://www.w3.org/1999/02/22-rdf-syntax-ns#" xmlns:cc="http://creativecommons.org/ns#" xmlns:svg="http://www.w3.org/2000/svg" xmlns:inkscape="http://www.inkscape.org/namespaces/inkscape" xmlns:sodipodi="http://sodipodi.sourceforge.net/DTD/sodipodi-0.dtd"
	 xmlns="http://www.w3.org/2000/svg" xmlns:xlink="http://www.w3.org/1999/xlink" x="0px" y="0px" width="50px" height="50px"
	 viewBox="189.13 188.441 50 50" enable-background="new 189.13 188.441 50 50" xml:space="preserve">
<sodipodi:namedview  id="base" inkscape:window-maximized="1" inkscape:cy="180.26431" inkscape:cx="330.2678" inkscape:zoom="0.7" borderopacity="1.0" bordercolor="#666666" showguides="true" showgrid="false" pagecolor="#ffffff" inkscape:pageshadow="2" inkscape:window-y="-8" inkscape:window-x="-8" inkscape:window-height="657" inkscape:window-width="1280" inkscape:guide-bbox="true" inkscape:current-layer="layer1" inkscape:document-units="px" inkscape:pageopacity="0.0">
	<sodipodi:guide  id="guide6442" orientation="0,1" position="231.42857,357.14284"></sodipodi:guide>
	<sodipodi:guide  id="guide6444" orientation="1,0" position="357.14285,554.28569"></sodipodi:guide>
</sodipodi:namedview>
<g id="layer1" transform="translate(0,-520.86618)" inkscape:label="Vrstva 1" inkscape:groupmode="layer">
	<path id="path3338-6-8-9-9-4" fill="none" stroke="#FFFFFF" stroke-width="2" d="M214.131,711.909
		c12.37,0,22.394,10.03,22.394,22.396c0,12.379-10.023,22.401-22.394,22.401c-12.371,0-22.398-10.022-22.398-22.401
		C191.733,721.939,201.76,711.909,214.131,711.909z"/>
	<path id="path4140-5-1-4-4-7" fill="none" stroke="#FFFFFF" stroke-width="2" d="M221.133,720.835c3.744,0,6.779,3.031,6.779,6.78
		c0,3.75-3.035,6.796-6.779,6.796c-3.759,0-6.786-3.046-6.786-6.796C214.346,723.866,217.374,720.835,221.133,720.835z"/>
	
		<path id="path4561-0-7-3" inkscape:connector-curvature="0" sodipodi:nodetypes="cc" fill="none" stroke="#FFFFFF" stroke-width="2" d="
		M225.348,714.901c12.165,11.285-0.125,23.896-8.534,17.961"/>
</g>
</svg>
