<svg id="Layer_1" data-name="Layer 1" xmlns="http://www.w3.org/2000/svg" viewBox="0 0 364.77 88.95"><title>logo-horizontal</title><g id="layer1"><circle id="path3338-6-8-9-9-4" cx="44.47" cy="44.48" r="43.47" fill="none" stroke="#fff" stroke-width="2"/><circle id="path4140-5-1-4-4-7" cx="58.06" cy="31.49" r="13.17" fill="none" stroke="#fff" stroke-width="2"/><path id="path4561-0-7-3" d="M66.26,6.81C89.87,28.71,66,53.19,49.68,41.68" fill="none" stroke="#fff" stroke-width="2"/></g><path d="M134.56,51.08c0,7.82-5.27,12.3-14.21,12.3s-14.16-4.48-14.16-12.3V40.21c0-7.77,5.32-12.25,14.21-12.25s14.16,4.48,14.16,12.25Zm-2.45-10.87c0-6.44-4.31-10.28-11.71-10.28s-11.76,3.84-11.76,10.28V51.08c0,6.49,4.36,10.28,11.71,10.28s11.76-3.79,11.76-10.28Z" fill="#fff"/><path d="M142,28.46h13.36c6.92,0,11.44,3.25,11.44,10.33s-4.47,10.33-11.44,10.33H144.46V62.89H142Zm2.45,18.64h10.8c5.48,0,9-2.61,9-8.31s-3.51-8.36-9-8.36h-10.8Z" fill="#fff"/><path d="M172.67,28.46H186.4c6.81,0,11.44,3.3,11.44,10,0,5-2.29,8.17-6.17,9.54,4,1.28,6.33,4.48,6.33,9.4v5.46h-2.55V57.14c0-5.36-3.35-8-8.78-8H175.12V62.89h-2.45ZM186.35,47.1c5.48,0,9-2.61,9-8.31s-3.51-8.36-9-8.36H175.12V47.1Z" fill="#fff"/><path d="M204.71,62.89V39.52c0-7.33,5-11.56,13.41-11.56s13.36,4.23,13.36,11.56V62.89H229V51.13H207.16V62.89Zm2.45-13.77H229V39.52c0-6-4-9.59-10.91-9.59s-11,3.59-11,9.59Zm8.57-22.63,5.11-7.13h2.66l-5.64,7.13Z" fill="#fff"/><path d="M255.92,47.2l-7.5-1.33c-5.48-1-8.84-3.74-8.84-8.76,0-5.9,4.47-9.15,12.72-9.15s12.61,3.44,12.61,10.33v.25h-2.45v-.25c0-5.51-3.46-8.36-10.17-8.36s-10.17,2.56-10.17,7c0,3.89,2.55,6.05,6.81,6.79l7.5,1.33c5.59,1,8.83,3.74,8.83,8.76,0,6.3-4.84,9.54-13.09,9.54s-13-3.44-13-10.33v-.25h2.45v.25c0,5.51,3.83,8.31,10.59,8.31s10.54-2.46,10.54-7.38C262.73,50.1,260.17,48,255.92,47.2Zm-11.5-27.84h2.24L252.19,25l5.54-5.66h2.18l-6.44,7.13h-2.61Z" fill="#fff"/><path d="M286.52,62.89c-8.78,0-14.05-4.48-14.05-12.3V40.71c0-7.77,5.27-12.25,14.05-12.25H296v2h-9.53c-7.29,0-11.6,3.84-11.6,10.28v3.94h18.47v2H274.92v3.94c0,6.49,4.31,10.28,11.6,10.28H296v2Z" fill="#fff"/><path d="M304.62,32.64V62.89h-2.45V28.46h2.34l22,30.25V28.46h2.45V62.89h-2.29Z" fill="#fff"/><path d="M364.77,51.08c0,7.82-5.27,12.3-14.21,12.3s-14.16-4.48-14.16-12.3V40.21c0-7.77,5.32-12.25,14.21-12.25s14.16,4.48,14.16,12.25Zm-2.45-10.87c0-6.44-4.31-10.28-11.71-10.28s-11.76,3.84-11.76,10.28V51.08c0,6.49,4.36,10.28,11.71,10.28s11.76-3.79,11.76-10.28Z" fill="#fff"/></svg>