<?xml version="1.0" encoding="utf-8"?>
<!-- Generator: Adobe Illustrator 15.1.0, SVG Export Plug-In . SVG Version: 6.00 Build 0)  -->
<!DOCTYPE svg PUBLIC "-//W3C//DTD SVG 1.1//EN" "http://www.w3.org/Graphics/SVG/1.1/DTD/svg11.dtd">
<svg version="1.1" id="Layer_1" xmlns="http://www.w3.org/2000/svg" xmlns:xlink="http://www.w3.org/1999/xlink" x="0px" y="0px"
	 width="74.667px" height="425.282px" viewBox="0 0 74.667 425.282" enable-background="new 0 0 74.667 425.282"
	 xml:space="preserve">
<circle id="path3338-6-8-9-9-4" fill="none" stroke="#FFFFFF" stroke-width="2" cx="37.642" cy="36.413" r="33.587"/>
<circle id="path4140-5-1-4-4-7" fill="none" stroke="#FFFFFF" stroke-width="2" cx="48.807" cy="26.382" r="10.177"/>
<path id="path4561-0-7-3" fill="none" stroke="#FFFFFF" stroke-width="2" d="
	M55.137,7.311C73.378,24.235,54.95,43.146,42.333,34.25"/>
<g>
	<path fill="#FFFFFF" d="M46.484,113.035c0,5.694-3.546,8.953-9.563,8.953c-5.945,0-9.526-3.259-9.526-8.953v-7.914
		c0-5.659,3.582-8.917,9.562-8.917c5.981,0,9.527,3.259,9.527,8.917V113.035z M44.835,105.121c0-4.691-2.9-7.485-7.878-7.485
		s-7.915,2.793-7.915,7.485v7.914c0,4.728,2.937,7.485,7.879,7.485c5.014,0,7.914-2.757,7.914-7.485V105.121z"/>
	<path fill="#FFFFFF" d="M27.753,139.543h8.989c4.656,0,7.7,2.364,7.7,7.521c0,5.121-3.009,7.521-7.7,7.521h-7.341v10.027h-1.647
		V139.543z M29.401,153.117h7.27c3.688,0,6.052-1.898,6.052-6.052c0-4.19-2.363-6.088-6.052-6.088h-7.27V153.117z"/>
	<path fill="#FFFFFF" d="M27.753,182.525h9.239c4.584,0,7.7,2.399,7.7,7.306c0,3.617-1.54,5.945-4.154,6.948
		c2.686,0.931,4.262,3.259,4.262,6.84v3.975h-1.719v-4.19c0-3.904-2.257-5.837-5.91-5.837h-7.771v10.027h-1.647V182.525z
		 M36.957,196.099c3.689,0,6.052-1.898,6.052-6.052c0-4.19-2.363-6.088-6.052-6.088h-7.556v12.141H36.957z"/>
	<path fill="#FFFFFF" d="M27.717,250.576v-17.011c0-5.336,3.367-8.416,9.025-8.416c5.623,0,8.989,3.08,8.989,8.416v17.011h-1.647
		v-8.559H29.365v8.559H27.717z M29.365,240.549h14.719v-6.983c0-4.369-2.722-6.983-7.341-6.983c-4.656,0-7.377,2.614-7.377,6.983
		V240.549z M35.131,224.075l3.438-5.192h1.79l-3.796,5.192H35.131z"/>
	<path fill="#FFFFFF" d="M38.855,282.134l-5.049-0.967c-3.689-0.716-5.945-2.722-5.945-6.374c0-4.298,3.008-6.662,8.559-6.662
		c5.515,0,8.488,2.508,8.488,7.521v0.179H43.26v-0.179c0-4.012-2.328-6.088-6.84-6.088c-4.548,0-6.84,1.861-6.84,5.121
		c0,2.828,1.719,4.404,4.584,4.941l5.05,0.967c3.761,0.752,5.944,2.723,5.944,6.375c0,4.584-3.258,6.947-8.81,6.947
		c-5.515,0-8.774-2.507-8.774-7.521v-0.179h1.647v0.179c0,4.011,2.579,6.052,7.126,6.052c4.584,0,7.091-1.79,7.091-5.371
		C43.439,284.247,41.72,282.707,38.855,282.134z M31.12,261.864h1.504l3.724,4.118l3.725-4.118h1.468l-4.333,5.192h-1.755
		L31.12,261.864z"/>
	<path fill="#FFFFFF" d="M36.85,336.54c-5.909,0-9.455-3.259-9.455-8.953v-7.198c0-5.658,3.545-8.918,9.455-8.918h6.411v1.434H36.85
		c-4.906,0-7.807,2.793-7.807,7.484v2.865h12.427v1.469H29.042v2.864c0,4.728,2.901,7.485,7.807,7.485h6.411v1.468H36.85z"/>
	<path fill="#FFFFFF" d="M29.401,357.498v22.024h-1.647v-25.069h1.576l14.791,22.025v-22.025h1.647v25.069h-1.54L29.401,357.498z"/>
	<path fill="#FFFFFF" d="M46.484,413.909c0,5.694-3.546,8.953-9.563,8.953c-5.945,0-9.526-3.259-9.526-8.953v-7.915
		c0-5.658,3.582-8.917,9.562-8.917c5.981,0,9.527,3.259,9.527,8.917V413.909z M44.835,405.994c0-4.691-2.9-7.484-7.878-7.484
		s-7.915,2.793-7.915,7.484v7.915c0,4.727,2.937,7.484,7.879,7.484c5.014,0,7.914-2.758,7.914-7.484V405.994z"/>
</g>
</svg>
